<svg xmlns="http://www.w3.org/2000/svg" viewBox="0 0 1200 370" role="img" aria-labelledby="title desc"><title id="title">Solar24 — time, nature, culture</title><desc id="desc">Original title graphic with 24 marks, an editorial symbol rather than an astronomical diagram.</desc><rect width="1200" height="370" fill="#FAFAF7"/><path d="M48 270 H1152" stroke="#B5BFB6"/><text x="48" y="60" font-family="sans-serif" font-size="16" fill="#235B50" letter-spacing="3">OPEN SOURCE DIGITAL CULTURE PROJECT</text><text x="44" y="165" font-family="Georgia,serif" font-size="100" fill="#243329">Solar24</text><text x="50" y="220" font-family="sans-serif" font-size="26" fill="#243329">How does humanity experience time?</text><text x="50" y="320" font-family="sans-serif" font-size="18" fill="#243329">CHINA SHARES A STORY. THE WORLD BRINGS ITS OWN.</text><line x1="1010.00" y1="76.00" x2="1010.00" y2="62.00" stroke="#235B50" stroke-width="3"/><line x1="1029.15" y1="78.52" x2="1032.78" y2="65.00" stroke="#235B50" stroke-width="3"/><line x1="1047.00" y1="85.91" x2="1054.00" y2="73.79" stroke="#235B50" stroke-width="3"/><line x1="1062.33" y1="97.67" x2="1072.23" y2="87.77" stroke="#235B50" stroke-width="3"/><line x1="1074.09" y1="113.00" x2="1086.21" y2="106.00" stroke="#235B50" stroke-width="3"/><line x1="1081.48" y1="130.85" x2="1095.00" y2="127.22" stroke="#235B50" stroke-width="3"/><line x1="1084.00" y1="150.00" x2="1098.00" y2="150.00" stroke="#91462E" stroke-width="3"/><line x1="1081.48" y1="169.15" x2="1095.00" y2="172.78" stroke="#91462E" stroke-width="3"/><line x1="1074.09" y1="187.00" x2="1086.21" y2="194.00" stroke="#91462E" stroke-width="3"/><line x1="1062.33" y1="202.33" x2="1072.23" y2="212.23" stroke="#91462E" stroke-width="3"/><line x1="1047.00" y1="214.09" x2="1054.00" y2="226.21" stroke="#91462E" stroke-width="3"/><line x1="1029.15" y1="221.48" x2="1032.78" y2="235.00" stroke="#91462E" stroke-width="3"/><line x1="1010.00" y1="224.00" x2="1010.00" y2="238.00" stroke="#70562A" stroke-width="3"/><line x1="990.85" y1="221.48" x2="987.22" y2="235.00" stroke="#70562A" stroke-width="3"/><line x1="973.00" y1="214.09" x2="966.00" y2="226.21" stroke="#70562A" stroke-width="3"/><line x1="957.67" y1="202.33" x2="947.77" y2="212.23" stroke="#70562A" stroke-width="3"/><line x1="945.91" y1="187.00" x2="933.79" y2="194.00" stroke="#70562A" stroke-width="3"/><line x1="938.52" y1="169.15" x2="925.00" y2="172.78" stroke="#70562A" stroke-width="3"/><line x1="936.00" y1="150.00" x2="922.00" y2="150.00" stroke="#3C566F" stroke-width="3"/><line x1="938.52" y1="130.85" x2="925.00" y2="127.22" stroke="#3C566F" stroke-width="3"/><line x1="945.91" y1="113.00" x2="933.79" y2="106.00" stroke="#3C566F" stroke-width="3"/><line x1="957.67" y1="97.67" x2="947.77" y2="87.77" stroke="#3C566F" stroke-width="3"/><line x1="973.00" y1="85.91" x2="966.00" y2="73.79" stroke="#3C566F" stroke-width="3"/><line x1="990.85" y1="78.52" x2="987.22" y2="65.00" stroke="#3C566F" stroke-width="3"/><text x="1010" y="168" text-anchor="middle" font-family="Georgia,serif" font-size="48" fill="#243329">24</text></svg>
